# xmcd
#
# Track frame offsets:
# 183
# 16380
# 30565
# 46370
# 65063
# 86015
# 107183
# 123428
# 131885
# 150245
# 173453
# 186870
# 199660
# 217628
# 235533
# 249800
# 271413
# 285785
#
# Disc length: 4010 seconds
#
#
# Revision: 6
# Processed by: cddbd v1.5.2PL0 Copyright (c) Steve Scherf et al.
# Submitted via: FreeRIP 2.945 
#
DISCID=e50fa812
DTITLE=John Denver - Het Beste Van
DYEAR=1990
DGENRE=Country
TTITLE0=Calypso
TTITLE1=Take Me Home Country Roads
TTITLE2=I'm Sorry
TTITLE3=Fly Away
TTITLE4=Rocky Mountain High
TTITLE5=Back Home Again
TTITLE6=Autograph
TTITLE7=Perhaps Love
TTITLE8=Like A Sad Song
TTITLE9=Sunshine On My Shoulders
TTITLE10=Annie's Song
TTITLE11=Follow Me
TTITLE12=Leaving On A Jetplane
TTITLE13=Looking For Space
TTITLE14=Starwood In Aspen
TTITLE15=My Sweet Lady
TTITLE16=Rhymes And Reasons
TTITLE17=Thank God I'm A Country Boy
EXTD=
EXTT0=
EXTT1=
EXTT2=
EXTT3=
EXTT4=
EXTT5=
EXTT6=
EXTT7=
EXTT8=
EXTT9=
EXTT10=
EXTT11=
EXTT12=
EXTT13=
EXTT14=
EXTT15=
EXTT16=
EXTT17=
PLAYORDER=
